<svg xmlns="http://www.w3.org/2000/svg" viewBox="0 0 100 100">
  <circle cx="50" cy="50" r="50" fill="#000000"/>
  <g transform="translate(50, 50) scale(0.11, 0.11) translate(-366, -209)">
    <path fill="#ffffff" stroke="#ffffff" stroke-width="20" stroke-linejoin="round" transform="scale(0.544643 0.544271)" d="M825.601 590.419C851.405 567.455 865.299 471.968 871.097 437.704C885.909 350.161 893.036 257.767 924.359 173.957C935.532 144.063 960.656 111.469 995.751 113.15C1055.73 116.022 1075.3 210.33 1084.82 257.439C1088.96 277.769 1092.7 298.181 1096.03 318.661C1101.18 349.228 1105.83 381.238 1112.84 411.361C1130 485.04 1152.46 583.765 1246.17 585.578L1246.22 646.451C1213.03 644.102 1182.02 636.854 1154.15 617.871C1060.44 554.023 1047.6 378.245 1028 274.9C1024.12 254.469 1010.84 186.084 994.461 174.934C993.125 174.765 992.499 174.563 991.256 175.206C963.213 189.707 934.219 419.853 927.356 461.318C922.361 491.502 917.049 521.847 908.793 551.341C899.555 584.344 884.702 626.455 853.048 644.136C839.461 651.725 824.132 652.936 809.266 648.71C743.19 629.929 726.715 476.593 717.782 419.387C713.134 388.884 708.231 358.42 703.074 328C699.604 307.267 678.955 180.654 658.623 174.946C657.379 175.039 656.335 175.227 655.298 175.969C634.413 190.896 613.053 329.072 608.758 358.902C595.39 439.102 572.831 510.788 513.898 569.314C462.933 620.81 393.359 649.569 320.918 649.084C249.42 648.366 181.085 619.501 130.715 568.742C80.5876 518.141 52.8354 449.55 53.669 378.32C54.401 307.759 83.0971 240.372 133.457 190.954C185.062 140.296 254.78 112.387 327.078 113.443C386.101 114.386 443.206 134.556 489.733 170.895C502.912 181.179 512.6 190.688 524.189 202.555C511.534 216.144 495.741 230.632 482.394 244.395C477.085 239.28 472.318 234.133 466.765 229.206C442.893 207.717 414.578 191.756 383.837 182.46C329.3 166.083 270.475 172.267 220.534 199.629C172.974 225.471 137.528 269.038 121.894 320.867C106.16 373.84 110.689 430.27 137.204 479.051C163.949 527.937 208.94 564.257 262.359 580.084C316.81 596.01 373.426 590.836 423.31 563.374C466.485 539.565 500.518 502.07 520.053 456.792C526.393 442.032 530.677 427.362 535.141 411.985C515.386 410.6 482.342 411.576 461.891 411.584L322.332 411.636C322.094 391.742 322.332 371.388 322.355 351.458C349.398 350.814 378.444 351.314 405.615 351.305L549.749 351.356C551.449 335.153 554.621 316.418 557.871 300.415C569.218 244.539 582.967 119.371 655.61 113.217C655.936 113.205 656.262 113.197 656.589 113.191C728.831 112.004 744.587 234.598 755.675 287.261C769.597 353.383 775.551 421.234 788.971 487.385C794.706 515.652 805.04 570.332 825.601 590.419Z"/>
  </g>
</svg>
